<svg width="50" height="50" viewBox="0 0 50 50" fill="none" xmlns="http://www.w3.org/2000/svg">
<g id="loading">
<path id="Vector" d="M25 0C24.191 0 23.5352 0.655857 23.5352 1.46484V10.8789C23.5352 11.6879 24.191 12.3437 25 12.3437C25.809 12.3437 26.4648 11.6879 26.4648 10.8789V1.46484C26.4648 0.655857 25.809 0 25 0Z" fill="white"/>
<path id="Vector_2" opacity="0.4" d="M25 37.6566C24.191 37.6566 23.5352 38.3124 23.5352 39.1214V48.5353C23.5352 49.3443 24.191 50.0002 25 50.0002C25.809 50.0002 26.4648 49.3443 26.4648 48.5353V39.1214C26.4648 38.3123 25.809 37.6566 25 37.6566Z" fill="white"/>
<path id="Vector_3" opacity="0.05" d="M19.2082 12.0385L14.5012 3.88573C14.0967 3.18505 13.2009 2.94481 12.5002 3.3496C11.7996 3.75409 11.5596 4.64988 11.9641 5.35057L16.6711 13.5034C16.9424 13.9734 17.4348 14.2361 17.941 14.2361C18.1895 14.2361 18.4414 14.1728 18.6721 14.0395C19.3727 13.635 19.6127 12.7392 19.2082 12.0385Z" fill="white"/>
<path id="Vector_4" opacity="0.5" d="M38.0358 44.6492L33.3288 36.4966C32.9244 35.7959 32.0286 35.5557 31.3279 35.9605C30.6273 36.365 30.3872 37.2608 30.7917 37.9615L35.4987 46.1141C35.77 46.5841 36.2623 46.8468 36.7686 46.8468C37.0171 46.8468 37.2691 46.7835 37.4996 46.6502C38.2002 46.2457 38.4404 45.3499 38.0358 44.6492Z" fill="white"/>
<path id="Vector_5" opacity="0.05" d="M13.5042 16.6709L5.35127 11.9637C4.65069 11.5589 3.75479 11.7992 3.3503 12.4999C2.94581 13.2004 3.18585 14.0963 3.88643 14.5008L12.0393 19.208C12.27 19.3412 12.5218 19.4046 12.7704 19.4046C13.2766 19.4046 13.769 19.1418 14.0403 18.6719C14.4448 17.9713 14.2048 17.0754 13.5042 16.6709Z" fill="white"/>
<path id="Vector_6" opacity="0.6" d="M46.1148 35.4985L37.9621 30.7917C37.2613 30.3869 36.3656 30.6273 35.9612 31.3278C35.5567 32.0285 35.7966 32.9244 36.4973 33.3288L44.65 38.0356C44.8807 38.1688 45.1324 38.2322 45.381 38.2322C45.8873 38.2322 46.3797 37.9694 46.651 37.4995C47.0555 36.7988 46.8155 35.9029 46.1148 35.4985Z" fill="white"/>
<path id="Vector_7" opacity="0.1" d="M10.879 23.5355H1.46484C0.655857 23.5355 0 24.1913 0 25.0003C0 25.8093 0.655857 26.4651 1.46484 26.4651H10.879C11.6879 26.4651 12.3438 25.8093 12.3438 25.0003C12.3438 24.1913 11.6879 23.5355 10.879 23.5355Z" fill="white"/>
<path id="Vector_8" opacity="0.7" d="M48.5349 23.5355H39.1211C38.3121 23.5355 37.6562 24.1913 37.6562 25.0003C37.6562 25.8093 38.3121 26.4651 39.1211 26.4651H48.5349C49.3439 26.4651 49.9998 25.8093 49.9998 25.0003C49.9998 24.1913 49.3439 23.5355 48.5349 23.5355Z" fill="white"/>
<path id="Vector_9" opacity="0.2" d="M14.0403 31.3279C13.6359 30.6272 12.7401 30.387 12.0393 30.7917L3.88643 35.4987C3.18585 35.9032 2.94581 36.799 3.3503 37.4997C3.62159 37.9697 4.11397 38.2324 4.62022 38.2324C4.86875 38.2324 5.12061 38.1692 5.35127 38.0359L13.5042 33.3288C14.2048 32.9243 14.4448 32.0285 14.0403 31.3279Z" fill="white"/>
<path id="Vector_10" opacity="0.8" d="M46.6509 12.4998C46.2464 11.7991 45.3506 11.559 44.6499 11.9637L36.4972 16.6707C35.7966 17.0752 35.5567 17.971 35.9611 18.6717C36.2324 19.1417 36.7247 19.4044 37.2311 19.4044C37.4795 19.4044 37.7314 19.3411 37.9621 19.2078L46.1148 14.5008C46.8155 14.0963 47.0554 13.2004 46.6509 12.4998Z" fill="white"/>
<path id="Vector_11" opacity="0.3" d="M18.6721 35.9605C17.9714 35.5557 17.0755 35.7959 16.6711 36.4966L11.9641 44.6494C11.5596 45.3501 11.7996 46.246 12.5002 46.6504C12.7309 46.7836 12.9827 46.847 13.2313 46.847C13.7375 46.847 14.23 46.5842 14.5012 46.1143L19.2082 37.9615C19.6127 37.2609 19.3727 36.365 18.6721 35.9605Z" fill="white"/>
<path id="Vector_12" opacity="0.9" d="M37.4996 3.34962C36.799 2.94483 35.9031 3.18497 35.4987 3.88575L30.7917 12.0384C30.3872 12.7388 30.6273 13.6347 31.3279 14.0393C31.5585 14.1725 31.8104 14.2359 32.0589 14.2359C32.5652 14.2359 33.0576 13.9732 33.3288 13.5032L38.0358 5.35059C38.4404 4.65 38.2002 3.75411 37.4996 3.34962Z" fill="white"/>
</g>
</svg>
